<svg width="28" height="28" viewBox="0 0 28 28" fill="none" xmlns="http://www.w3.org/2000/svg">
<path d="M6.7 27.2001H0V9.90011H6.7V27.2001ZM3.4 7.30011C1.3 7.30011 0 5.70011 0 4.00011C0 2.20011 1.3 0.80011 3.4 0.80011C5.5 0.80011 6.7 2.30011 6.8 4.10011C6.7 5.70011 5.4 7.30011 3.4 7.30011ZM18.7 15.3001C17.2 15.3001 16 16.5001 16 18.0001V27.3001H9.4C9.4 27.3001 9.5 11.3001 9.4 10.0001H16V12.0001C16 12.0001 18.1 10.1001 21.2 10.1001C25.1 10.1001 27.9 13.0001 27.9 18.5001V27.4001H21.2V18.1001C21.3 16.5001 20.1 15.3001 18.7 15.3001Z" fill="#F8F8F8"/>
</svg>
