<svg width="28" height="28" viewBox="0 0 28 28" fill="none" xmlns="http://www.w3.org/2000/svg">
<path d="M22.6 0.00012207H5.4C2.4 0.00012207 0 2.40012 0 5.40012V11.1001V13.2001V22.6001C0 25.6001 2.4 28.0001 5.4 28.0001H22.6C25.6 28.0001 28 25.6001 28 22.6001V13.2001V11.1001V5.40012C28 2.40012 25.6 0.00012207 22.6 0.00012207ZM24.2 3.20012H24.8V3.80012V8.00012H20.1V3.20012H24.2ZM10 11.1001C10.9 9.90012 12.4 9.10012 14 9.10012C15.7 9.10012 17.1 9.90012 18 11.1001C18.1 11.2001 18.2 11.4001 18.3 11.6001C18.7 12.3001 18.9 13.1001 18.9 14.0001C18.9 16.7001 16.7 18.9001 14 18.9001C11.3 18.9001 9 16.7001 9 14.0001C9 13.1001 9.2 12.3001 9.6 11.6001C9.8 11.4001 9.9 11.3001 10 11.1001ZM25.3 22.6001C25.3 24.1001 24.1 25.3001 22.6 25.3001H5.4C3.9 25.3001 2.7 24.1001 2.7 22.6001V12.6001V11.2001H6.9C6.8 11.4001 6.7 11.7001 6.6 12.0001C6.4 12.7001 6.3 13.4001 6.3 14.1001C6.3 18.3001 9.7 21.8001 14 21.8001C18.3 21.8001 21.7 18.4001 21.7 14.1001C21.7 13.4001 21.6 12.7001 21.4 12.0001C21.3 11.7001 21.2 11.5001 21.1 11.2001H25.3V12.6001V22.6001Z" fill="#F8F8F8"/>
</svg>
